<?xml version="1.0" encoding="UTF-8"?><svg id="Layer_1" xmlns="http://www.w3.org/2000/svg" viewBox="0 0 175.63 144.92"><defs><style>.cls-1{fill:#9c6;}.cls-2{fill:#fff;stroke:#9c6;stroke-miterlimit:10;stroke-width:2px;}</style></defs><circle class="cls-2" cx="88" cy="73.02" r="49.25"/><g><path class="cls-1" d="M120.1,82.89c-.35,1.15-.94,2.15-2.11,2.54-.75,.25-1.59,.24-2.4,.32-.46,.04-1.02-.14-1.35,.06-.3,.19-.36,.78-.53,1.19-1.01,2.45-3.25,3.99-5.77,3.97-2.57-.02-4.76-1.55-5.75-4-.02-.06-.05-.12-.07-.18q-.36-1.04-1.44-1.04c-6.39,0-12.79,0-19.18,0-.29,0-.66,.04-.85-.12-.27-.22-.53-.59-.57-.92-.06-.42,.27-.73,.71-.81,.24-.04,.5-.03,.75-.03,6.54,0,13.08,0,19.62,.01,.54,0,.75-.15,.88-.68,.64-2.64,3.11-4.54,5.88-4.58,2.75-.03,5.3,1.89,5.97,4.55,.14,.54,.33,.77,.91,.71,.6-.06,1.21,0,1.82-.02,.9-.04,1.58-.66,1.6-1.53,.03-2.09,0-4.17,0-6.34-.57-.04-1.13-.08-1.68-.12-3.82-.28-7.61-.69-11.21-2.13-.64-.26-1.24-.59-1.84-.93-1.14-.65-1.65-1.67-1.65-2.96,0-3.22,0-6.44,0-9.65,0-1.23,.69-1.88,1.92-1.89,3.78,0,7.56,0,11.35,0,.23,0,.45,0,.68,0-.02-1.51-.45-1.94-1.9-1.94-18.1,0-36.19,0-54.29,0-1.5,0-1.82,.31-1.82,1.79,0,8,0,16.01,0,24.01,0,1.35,.36,1.71,1.71,1.71,.79,0,1.59,0,2.29,0,.39-.86,.65-1.71,1.13-2.42,1.49-2.24,3.65-3.17,6.27-2.68,2.52,.47,4.15,2.05,4.81,4.54,.12,.46,.31,.6,.77,.57,.58-.04,1.17-.02,1.75,0,.55,.01,.91,.28,.97,.86,.05,.54-.3,.95-.89,1-.64,.05-1.3,.04-1.94,.01-.38-.02-.53,.11-.63,.49-.62,2.38-2.14,3.91-4.52,4.55-3.09,.83-6.54-1.15-7.34-4.25-.16-.62-.39-.86-1.04-.79-.66,.07-1.34,.03-2,.01-1.94-.05-3.19-1.32-3.2-3.27-.01-2.59,0-5.18,0-7.77,0-5.58,0-11.16,0-16.74,0-2.27,1.21-3.5,3.47-3.5,18.24,0,36.48,0,54.72,0,2.04,0,3.1,.91,3.5,2.93,.79,4.01,1.58,8.02,2.38,12.04,.02,.1,.08,.19,.12,.28v13.16Zm-2-8.8c0-1.53,.14-3-.03-4.43-.25-2-.74-3.97-1.13-5.96-.23-1.16-.47-2.32-.7-3.48h-12.51c0,.25,0,.48,0,.7,0,2.61,0,5.22,0,7.83,0,2.14,.12,2.33,2.09,3.16,.06,.02,.12,.05,.17,.07,3.9,1.54,8.02,1.83,12.12,2.1Zm-50.05,15c2.35,0,4.27-1.9,4.29-4.25,.02-2.36-1.93-4.32-4.29-4.32-2.34,0-4.25,1.91-4.28,4.26-.02,2.37,1.91,4.31,4.28,4.31Zm44.19-4.29c0-2.35-1.91-4.27-4.25-4.29-2.35-.02-4.32,1.94-4.31,4.3,0,2.35,1.9,4.25,4.26,4.28,2.36,.03,4.31-1.91,4.31-4.29Z"/><path class="cls-1" d="M69.43,71.89c-2.48,0-4.97,0-7.45,0-1.35,0-1.91-.56-1.91-1.89,0-3.26,0-6.51,0-9.77,0-1.34,.57-1.91,1.89-1.91,4.99,0,9.98,0,14.97,0,1.34,0,1.91,.56,1.91,1.89,0,3.26,0,6.51,0,9.77,0,1.35-.56,1.91-1.89,1.91-2.51,0-5.01,0-7.52,0Zm-.97-1.91v-9.73h-6.46v9.73h6.46Zm1.99-9.76v9.74h6.47v-9.74h-6.47Z"/><path class="cls-1" d="M90.13,71.89c-2.49,0-4.97,0-7.46,0-1.42,0-1.94-.52-1.94-1.91,0-3.26,0-6.52,0-9.78,0-1.32,.55-1.88,1.86-1.88,5.01,0,10.03,0,15.04,0,1.27,0,1.85,.56,1.85,1.82,.01,3.3,.01,6.6,0,9.9,0,1.31-.57,1.84-1.89,1.84-2.49,0-4.97,0-7.46,0Zm7.43-11.65h-6.53c0,.32,0,.61,0,.9,0,.31,0,.63-.01,.94-.03,.53-.31,.86-.85,.91-.58,.05-.98-.33-1.01-1.01-.03-.57,0-1.15,0-1.73h-6.51v9.72h6.5c0-.77,0-1.5,0-2.23,0-.48,0-.96,.05-1.44,.07-.5,.43-.78,.92-.76,.52,.02,.85,.32,.89,.87,.02,.29,.01,.58,.01,.88,0,.89,0,1.78,0,2.69h6.53v-9.73Z"/><path class="cls-1" d="M103.6,77.47c-.34-.03-.68-.02-1-.08-.51-.09-.75-.45-.72-.94,.02-.46,.27-.81,.76-.84,.66-.04,1.33-.04,1.99,0,.48,.04,.72,.41,.72,.87,0,.46-.22,.81-.7,.9-.35,.06-.7,.06-1.04,.08Z"/></g></svg>