<?xml version="1.0" encoding="UTF-8"?><svg id="Layer_1" xmlns="http://www.w3.org/2000/svg" viewBox="0 0 175.63 144.92"><defs><style>.cls-1{fill:#9c6;}.cls-2{fill:#fff;stroke:#9c6;stroke-miterlimit:10;stroke-width:2px;}</style></defs><circle class="cls-2" cx="87.81" cy="72.46" r="49.25"/><g><path class="cls-1" d="M120.1,52.72c-.25,.31-.47,.64-.74,.91-2.7,2.71-5.41,5.4-7.96,7.95,.1,1.09,.28,2.01,.24,2.91-.05,.92-.58,1.67-1.24,2.33-1.66,1.65-3.31,3.31-4.96,4.96-1.94,1.94-4.29,1.94-6.24,0-.1-.1-.18-.23-.31-.38-.19,.17-.34,.28-.46,.4-.83,.82-1.64,1.67-2.49,2.47-1.77,1.67-4.28,1.67-6.04-.01-1.22-1.17-2.42-2.37-3.59-3.59-1.67-1.74-1.65-4.3,.02-6.04,.91-.95,1.87-1.85,3-2.97-.29-.2-.58-.34-.79-.55-1.62-1.67-1.65-4.07-.03-5.74,1.76-1.81,3.55-3.6,5.36-5.36,1.43-1.38,3.08-1.52,4.96-.67,.46-.49,.93-1.02,1.43-1.52,2.21-2.22,4.43-4.44,6.65-6.65,.28-.28,.61-.5,.91-.74,.25,0,.5,0,.75,0,.27,.23,.55,.44,.79,.69,2.48,2.48,4.97,4.95,7.44,7.44,1.11,1.12,2.2,2.27,3.3,3.41v.75Zm-19.4-1.66c.08,.08,.19,.21,.3,.33,.55,.61,.59,1.34,.1,1.85-.51,.53-1.27,.5-1.89-.09-.42-.4-.82-.83-1.24-1.24-.83-.8-1.65-.81-2.47,0-1.7,1.69-3.4,3.39-5.09,5.09-.79,.8-.78,1.66,.02,2.47,3.54,3.55,7.08,7.09,10.63,10.63,.82,.82,1.68,.82,2.51-.01,1.69-1.68,3.37-3.36,5.05-5.05,.81-.82,.81-1.64,.01-2.47-.46-.48-.96-.93-1.4-1.43-.45-.52-.39-1.24,.08-1.7,.45-.43,1.14-.46,1.66-.06,.19,.15,.37,.33,.5,.45,2.51-2.51,5-5,7.45-7.45-2.91-2.91-5.86-5.85-8.77-8.76-2.45,2.45-4.94,4.94-7.45,7.45Zm-3.83,18.63c-2-2.01-4-4.01-5.99-6.01-.92,.91-1.92,1.83-2.85,2.82-.65,.69-.63,1.7,.03,2.39,1.19,1.23,2.4,2.45,3.63,3.63,.7,.67,1.68,.69,2.38,.03,.98-.93,1.9-1.93,2.79-2.85Z"/><path class="cls-1" d="M80.67,93.85s-.04,0-.06,0c-1.15-.38-1.81,.31-2.53,1.05-2.99,3.04-6.01,6.04-9.03,9.05-.91,.91-1.47,.91-2.38,0-3.35-3.35-6.71-6.71-10.06-10.06-.95-.95-.95-1.49-.02-2.42,3.28-3.28,6.56-6.56,9.84-9.83,.27-.27,.37-.51,.31-.92-.25-1.87,.16-3.62,1.46-5,2.18-2.3,4.43-4.55,6.72-6.74,1.59-1.52,3.99-1.36,5.64,.27,2.63,2.6,5.23,5.23,7.85,7.84,.95,.95,1.9,1.89,2.84,2.84,1.79,1.81,1.8,4.21,.01,6.02-1.97,1.99-3.96,3.96-5.94,5.94-1.29,1.28-2.83,1.96-4.66,1.97Zm-12.81,7.61c2.95-2.95,5.92-5.92,8.81-8.81-2.92-2.93-5.88-5.89-8.79-8.81-2.93,2.93-5.89,5.89-8.82,8.82,2.92,2.92,5.87,5.87,8.79,8.8Zm11.55-29.92c-.27-.23-.48-.41-.68-.59-.72-.66-1.59-.68-2.29,.01-2.08,2.06-4.16,4.11-6.2,6.21-1.44,1.48-1.48,3.81-.05,5.28,2.59,2.67,5.22,5.3,7.89,7.89,1.43,1.39,3.75,1.38,5.19,0,2.16-2.07,4.25-4.2,6.35-6.33,.63-.64,.59-1.51,0-2.2-.2-.23-.36-.5-.56-.76-1.88,1.88-3.6,3.61-5.33,5.34-1.3,1.3-2.64,1.3-3.93,.01-1.88-1.87-3.75-3.75-5.63-5.63-1.33-1.33-1.34-2.65,0-3.98,1.73-1.73,3.46-3.45,5.27-5.26Zm-3.58,7.22c1.98,1.98,3.96,3.97,5.88,5.89,1.76-1.76,3.55-3.56,5.25-5.26-1.93-1.93-3.91-3.92-5.88-5.89-1.72,1.72-3.49,3.49-5.26,5.26Z"/><path class="cls-1" d="M104.15,57.59c-.67-.02-1.23-.6-1.22-1.27,0-.7,.61-1.26,1.31-1.23,.68,.03,1.21,.61,1.18,1.29-.02,.67-.61,1.22-1.28,1.21Z"/></g></svg>