<?xml version="1.0" encoding="UTF-8"?><svg id="Layer_1" xmlns="http://www.w3.org/2000/svg" viewBox="0 0 175.63 144.92"><defs><style>.cls-1{fill:#9c6;}.cls-2{fill:#fff;stroke:#9c6;stroke-miterlimit:10;stroke-width:2px;}</style></defs><circle class="cls-2" cx="88.16" cy="72.6" r="49.25"/><g><path class="cls-1" d="M94.4,37.41c2.24,.94,2.99,2.05,2.74,4.37-.11,.96-.37,1.95-.81,2.81-1.05,2.08-2.25,4.09-3.39,6.13-.12,.22-.27,.42-.45,.7,.98,.31,1.92,.62,2.86,.91,1.69,.54,3.38,1.08,5.07,1.61,1.14,.36,1.96,1.08,2.46,2.16,.77,1.64,1.54,3.29,2.31,4.93,.33,.7,.19,1.24-.37,1.49-.53,.23-1,0-1.32-.68-.75-1.58-1.5-3.17-2.23-4.76-.32-.71-.82-1.16-1.58-1.39-1.92-.58-3.82-1.21-5.73-1.81-.17-.05-.35-.09-.62-.16,.11,.27,.18,.45,.26,.63,1.55,3.35,3.08,6.71,4.66,10.05,.61,1.29,.63,2.53,.08,3.86-3.03,7.24-6.01,14.49-9.02,21.73-.18,.42-.17,.76,.03,1.17,1.08,2.26,2.13,4.53,3.19,6.8,.66,1.42,1.65,1.78,3.05,1.13,6.25-2.92,12.51-5.85,18.76-8.78,1.33-.62,1.7-1.64,1.07-2.98-3.22-6.88-6.44-13.75-9.66-20.63-.08-.17-.16-.34-.23-.51-.25-.6-.12-1.11,.36-1.35,.51-.25,1.04-.05,1.33,.55,.73,1.52,1.44,3.06,2.16,4.59,2.56,5.46,5.12,10.92,7.67,16.38,1.2,2.55,.47,4.54-2.1,5.75-6.18,2.89-12.35,5.79-18.53,8.68-2.37,1.11-4.45,.36-5.55-1.99-.82-1.74-1.63-3.48-2.45-5.21-.08-.17-.17-.33-.3-.6-.21,.5-.39,.9-.56,1.31-.67,1.62-1.33,3.24-2.02,4.85-.91,2.15-2.99,3.02-5.15,2.14-3.76-1.54-7.52-3.11-11.27-4.67-.71-.3-.98-.8-.73-1.36,.24-.52,.76-.67,1.45-.38,3.66,1.51,7.32,3.03,10.98,4.55,1.54,.64,2.45,.27,3.09-1.26,4.22-10.19,8.44-20.39,12.69-30.57,.36-.86,.35-1.61-.04-2.45-1.79-3.79-3.54-7.6-5.29-11.41-.41-.88-1-1.56-2-1.97-.1,.81-.21,1.55-.26,2.3-.01,.15,.18,.34,.32,.47,1.06,.93,1.42,2.37,.9,3.64-.54,1.3-1.82,2.07-3.26,1.95-1.32-.11-2.45-1.1-2.77-2.44-.41-1.69,.68-3.44,2.41-3.8,.42-.09,.55-.24,.57-.63,.03-.53,.13-1.07,.21-1.7-.32,.1-.55,.16-.78,.25-3.94,1.5-7.87,3.01-11.81,4.5-.69,.26-1.15,.71-1.43,1.39-4.26,10.29-8.53,20.58-12.79,30.87-.6,1.45-.2,2.4,1.25,3,1.08,.45,2.16,.89,3.24,1.34,.71,.3,.97,.81,.71,1.36-.24,.52-.75,.65-1.45,.36-1.16-.47-2.32-.94-3.47-1.43-2.1-.9-2.98-3.01-2.1-5.13,4.3-10.39,8.61-20.77,12.91-31.16,.47-1.13,1.25-1.89,2.39-2.33,3.98-1.51,7.95-3.04,11.92-4.56,.29-.11,.6-.26,.9-.26,.68,0,.82-.36,.92-.95,.37-2.12,.8-4.22,1.24-6.32,.1-.46,.29-.91,.48-1.35,.73-1.7,1.78-3.11,3.64-3.7h1.25Zm-3.57,12.99s.07-.03,.09-.06c1.56-2.32,3.03-4.69,4.01-7.32,.26-.7,.37-1.51,.34-2.26-.05-1.31-1.41-1.9-2.46-1.11-.37,.28-.76,.65-.94,1.06-.51,1.15-1.04,2.32-1.34,3.54-.45,1.83-.72,3.7-1.05,5.53,.52,.24,.93,.43,1.35,.62Zm-3.52,7.83c.71-.01,1.25-.57,1.25-1.28,0-.73-.58-1.3-1.31-1.28-.71,.02-1.25,.57-1.25,1.28,0,.73,.58,1.3,1.31,1.28Z"/><path class="cls-1" d="M68.81,77.56c0-6.23,4.12-10.78,9.5-11.3,5.4-.52,10.33,3.18,11.32,8.49,.1,.55,.16,1.12,.2,1.68,.05,.79-.28,1.22-.9,1.24-.6,.02-.92-.36-.97-1.12-.22-3.56-1.86-6.23-5.15-7.67-3.3-1.45-6.46-.98-9.17,1.39-2.69,2.36-3.6,5.41-2.61,8.85,1,3.46,3.4,5.54,6.96,6.15,3.59,.62,7.21-1.23,8.94-4.45,.06-.11,.11-.22,.18-.33,.33-.56,.82-.73,1.31-.47,.48,.26,.62,.77,.34,1.35-.86,1.77-2.11,3.22-3.79,4.24-3.5,2.12-7.13,2.29-10.72,.33-3.58-1.96-5.29-5.13-5.45-8.37Z"/><path class="cls-1" d="M81.5,73.15c1.28,.56,1.69,1.08,1.63,2.03-.03,.54-.26,.93-.83,1.01-.53,.08-.89-.21-1.06-.82,0-.02,0-.04,0-.06-.15-.47-2.16-.95-2.5-.59-.32,.34-.22,.88,.24,1.08,.34,.15,.71,.24,1.07,.35,1.4,.44,2.15,1.59,1.93,2.95-.2,1.24-1.26,2.07-2.65,2.09-.08,0-.16,0-.28,0-.35,.67-.28,1.91-1.5,1.53-1.14-.35-.49-1.29-.37-2.06-.21-.09-.43-.16-.63-.26-.78-.37-1.17-1.21-.97-2.03,.11-.46,.4-.73,.87-.75,.48-.02,.85,.21,.92,.67,.06,.43,.31,.53,.64,.62,.38,.1,.75,.24,1.14,.34,.4,.11,.78,.05,.93-.39,.15-.46-.07-.76-.52-.91-.34-.11-.68-.2-1.02-.31-1.32-.43-2.04-1.56-1.84-2.89,.19-1.27,1.22-2.11,2.61-2.13,.1,0,.2,0,.32,0,.34-.69,.26-1.8,1.48-1.56,.67,.13,.74,.63,.4,2.07Z"/><path class="cls-1" d="M111.19,87.26c-.23,.25-.44,.63-.72,.71-.3,.08-.69-.11-1.01-.25-.14-.06-.2-.31-.28-.48-1.91-4.05-3.82-8.1-5.73-12.16-.08-.17-.16-.34-.21-.52-.12-.47,.06-.82,.47-1.05,.43-.23,.82-.13,1.13,.22,.13,.15,.22,.35,.31,.54,1.9,4.03,3.8,8.07,5.69,12.1,.11,.24,.2,.5,.34,.88Z"/><path class="cls-1" d="M99.99,75.66c.48,.01,.73,.37,.94,.81,1.54,3.28,3.08,6.56,4.63,9.84,.4,.85,.81,1.69,1.19,2.55,.28,.61,.11,1.14-.41,1.37-.49,.22-1,.02-1.27-.56-1.97-4.18-3.95-8.37-5.91-12.56-.35-.74,.05-1.45,.83-1.46Z"/></g></svg>