<?xml version="1.0" encoding="UTF-8"?><svg id="Layer_1" xmlns="http://www.w3.org/2000/svg" viewBox="0 0 175.63 144.92"><defs><style>.cls-1{fill:#9c6;}.cls-2{fill:#fff;stroke:#9c6;stroke-miterlimit:10;stroke-width:2px;}</style></defs><circle class="cls-2" cx="87.99" cy="73.02" r="49.25"/><g><path class="cls-1" d="M91.25,40.52c.42,.1,.84,.19,1.26,.3,4.2,1.08,7.19,4.84,7.22,9.18,.04,4.73,.02,9.46,0,14.19,0,1.29-.34,2.51-.96,3.65-1.54,2.82-5.05,3.36-7.35,1.13-2.61-2.53-3.21-6.96-1.35-10.09,1.46-2.46,4.63-3.02,6.86-1.23,.2,.16,.4,.34,.69,.58,0-.33,0-.55,0-.77,0-2.38,0-4.75,0-7.13-.01-4.01-2.69-7.17-6.67-7.59-2.02-.21-4.09-.19-6.11,.04-3.73,.43-6.41,3.6-6.43,7.35-.02,3.44,0,6.88,0,10.31,0,1.69-.79,2.48-2.49,2.48-3.33,0-6.67,0-10,0-4.52,0-7.78,3.25-7.77,7.75,0,1.67-.1,3.35,.11,4.99,.48,3.8,3.61,6.46,7.45,6.48,3.42,.02,6.83,0,10.25,0,1.66,0,2.45,.79,2.45,2.45,0,3.35,0,6.71,0,10.06,0,4.51,3.26,7.75,7.77,7.75,1.56,0,3.14,.1,4.68-.06,3.65-.37,6.31-2.99,6.68-6.65,.19-1.91,.03-3.86,.03-5.85-.2,.09-.38,.17-.56,.25-1.38,.62-2.81,.77-4.27,.36-2.08-.59-3.41-2.39-3.6-4.76-.19-2.44,.56-4.53,2.19-6.36,.87-.97,1.59-2.08,2.35-3.14,.3-.42,.57-.87,.84-1.31,1.95-3.12,5.02-3.97,8.61-3.11,1.67,.4,2.84,1.5,3.8,2.87,1.11,1.58,2.15,3.23,3.38,4.7,1.51,1.8,2.32,3.77,2.19,6.12-.15,2.76-1.75,4.74-4.25,5.13-1.76,.28-3.39-.14-4.84-1.21-1.09-.8-2.29-1.04-3.67-.73,0,.25,0,.5,0,.74-.03,2.25,.08,4.51-.13,6.74-.43,4.51-4.32,8.14-8.87,8.35-2.06,.09-4.14,.13-6.18-.1-4.69-.53-8.24-4.58-8.3-9.31-.04-3.35,0-6.71,0-10.06,0-.22,0-.45,0-.75h-.71c-3.21,0-6.42,0-9.63,0-5.75,0-9.93-4.19-9.92-9.95,0-1.75-.08-3.51,.12-5.24,.56-4.7,4.59-8.24,9.33-8.29,3.42-.04,6.83,0,10.25,0,.16,0,.32,0,.56,0,0-.28,0-.5,0-.72,0-3.21,0-6.42,0-9.63,0-5.11,3.23-8.93,8.27-9.82,.08-.01,.15-.07,.22-.1,2.17,0,4.33,0,6.5,0Zm-.02,44.39c.01,.24,0,.47,.03,.7,.18,1.68,1.15,2.79,2.58,2.91,1.09,.1,2.1-.15,3.02-.78,2.62-1.8,5.26-1.77,7.91-.01,.54,.36,1.19,.62,1.83,.75,1.95,.39,3.36-.63,3.68-2.58,.32-1.89-.25-3.51-1.45-4.98-.98-1.21-1.89-2.48-2.81-3.74-.48-.65-.84-1.42-1.4-1.98-.56-.55-1.25-1.13-1.98-1.32-3-.76-4.99-.02-6.36,2.21-.16,.27-.32,.54-.51,.79-1.02,1.39-2.02,2.8-3.09,4.15-.91,1.16-1.44,2.42-1.45,3.89Zm-.29-22.04l.17,.05c0,1.75,.6,3.28,1.77,4.53,1.08,1.14,2.91,1.02,3.8-.25,1.55-2.21,1.03-6.1-1.04-7.83-1.34-1.11-3.06-.82-3.82,.74-.42,.86-.6,1.83-.89,2.75Z"/><path class="cls-1" d="M120.01,72.52c-.25,.74-.44,1.52-.77,2.23-.68,1.48-1.85,2.44-3.41,2.9-2.07,.6-3.91-.4-4.57-2.45-.9-2.81,.78-6.3,3.54-7.35,2.16-.82,4.26,.2,4.95,2.42,.09,.29,.17,.59,.25,.89v1.38Zm-2.11-.75c-.03-.21-.06-.49-.12-.75-.29-1.16-1.09-1.57-2.22-1.15-1.55,.58-2.67,2.59-2.36,4.26,.28,1.5,1.44,2.03,2.73,1.21,1.27-.81,1.85-2.04,1.97-3.57Z"/><path class="cls-1" d="M101.87,63.56c.08-1.97,.78-4.1,2.61-5.72,2.42-2.14,5.78-1.49,7.25,1.39,1.59,3.1,1.01,7.06-1.4,9.58-2.33,2.45-6.03,1.91-7.58-1.11-.59-1.14-.89-2.42-.89-4.14Zm8.62-.63c.06-.02,.11-.04,.17-.05-.3-.94-.5-1.93-.93-2.8-.74-1.51-2.44-1.81-3.73-.74-.36,.3-.71,.66-.95,1.06-1.28,2.11-1.45,4.3-.31,6.52,.78,1.52,2.77,1.77,3.95,.54,1.21-1.26,1.76-2.79,1.8-4.52Z"/><path class="cls-1" d="M81.58,71.8c.06-.43,.09-.87,.2-1.29,.59-2.43,2.9-3.57,5.2-2.59,2.6,1.11,4.18,4.4,3.41,7.11-.63,2.24-2.6,3.29-4.81,2.57-2.35-.77-3.96-3.12-4-5.8Zm2.13-.11c.17,1.76,.8,3.08,2.3,3.83,1.01,.5,1.9,.12,2.28-.88,.69-1.84-.66-4.4-2.57-4.86-.75-.18-1.38,.08-1.7,.79-.17,.39-.23,.83-.31,1.13Z"/><path class="cls-1" d="M60.26,70.19c.06-2.74,2.49-5.15,5.21-5.14,.66,0,1.12,.39,1.17,.97,.05,.64-.33,1.07-1.03,1.15-2.01,.25-3.03,1.26-3.22,3.17-.07,.71-.48,1.11-1.11,1.09-.64-.03-1.03-.51-1.02-1.24Z"/><path class="cls-1" d="M70.38,67.17c-1.07,0-1.58-.33-1.57-1.06,0-.72,.52-1.07,1.59-1.07,.25,0,.5-.01,.74,.04,.55,.13,.86,.49,.86,1.07,0,.55-.41,.96-.99,1.01-.21,.02-.42,0-.62,0Z"/></g></svg>