<?xml version="1.0" encoding="UTF-8"?><svg id="Layer_1" xmlns="http://www.w3.org/2000/svg" viewBox="0 0 175.63 144.92"><defs><style>.cls-1{fill:#9c6;}.cls-2{fill:#fff;stroke:#9c6;stroke-miterlimit:10;stroke-width:2px;}</style></defs><circle class="cls-2" cx="88.16" cy="72.46" r="49.25"/><g><path class="cls-1" d="M59.41,81.74c.26-.86,.42-1.77,.79-2.58,2.11-4.61,7.72-6.27,12.01-3.58,.42,.26,.65,.26,1.01-.1,5.88-5.91,11.78-11.8,17.68-17.69,.13-.13,.28-.24,.44-.38-1.61-2.87-1.82-5.76-.24-8.65,1.19-2.18,3.05-3.57,5.48-4.09,2.82-.6,5.38,.05,7.52,2.02,2.13,1.97,2.93,4.47,2.64,7.37,2.45-.3,4.59,.28,6.46,1.77,1.34,1.07,2.25,2.44,2.76,4.08,1.01,3.24-.14,6.88-2.77,9-2.46,1.98-6.85,2.89-10.59-.03-6.14,6.14-12.28,12.28-18.42,18.42,2.08,3.4,2.23,6.86-.33,10.11-2.23,2.83-5.31,3.85-8.74,2.83-4.49-1.33-6.35-4.65-6.16-9.1-1.12-.13-2.24-.14-3.3-.4-3.2-.77-5.65-3.55-6.12-6.82-.01-.1-.07-.2-.1-.3,0-.63,0-1.26,0-1.89Zm18.07,16.62c2.3-.07,4.25-1.16,5.35-3.46,1.12-2.36,.83-4.65-.82-6.71-.71-.89-.71-1.33,.1-2.14,6.44-6.45,12.89-12.89,19.33-19.33,.8-.8,1.32-.8,2.12-.03,1.54,1.49,3.37,2.08,5.5,1.72,2.93-.5,5.09-3.13,5.05-6.16-.04-3-2.3-5.57-5.24-5.99-1.13-.16-2.21,0-3.27,.38-.44,.16-.84,.11-1.19-.2-.37-.34-.43-.76-.29-1.22,.05-.16,.11-.31,.16-.47,.73-2.51,.18-4.7-1.73-6.48-2.29-2.13-5.89-2.12-8.21-.04-2.36,2.12-2.75,5.65-.91,8.21,.68,.94,.66,1.32-.09,2.08-6.48,6.48-12.97,12.97-19.45,19.45-.74,.74-1.22,.75-2.02,.07-1.5-1.28-3.23-1.75-5.17-1.42-2.93,.5-5.09,3.14-5.05,6.15,.04,3,2.3,5.57,5.24,5.99,1.05,.15,2.07,.05,3.06-.31,.52-.19,1.02-.26,1.45,.18,.41,.41,.37,.9,.18,1.39-.03,.07-.04,.14-.06,.21-1.32,4,1.53,8.03,5.99,8.13Z"/><path class="cls-1" d="M78,79.06c-.98-.01-1.52-.89-1.15-1.6,.09-.18,.23-.34,.37-.48,1.61-1.61,3.21-3.23,4.84-4.82,.26-.25,.67-.46,1.01-.47,.83-.02,1.29,.94,.85,1.66-.1,.15-.22,.29-.35,.42-1.58,1.59-3.16,3.18-4.76,4.75-.26,.26-.62,.42-.81,.54Z"/><path class="cls-1" d="M86.45,70.4c0,.62-.5,1.13-1.11,1.13-.59,0-1.1-.5-1.11-1.08,0-.58,.55-1.14,1.13-1.14,.59,0,1.09,.5,1.09,1.09Z"/></g></svg>