<?xml version="1.0" encoding="UTF-8"?><svg id="Layer_1" xmlns="http://www.w3.org/2000/svg" viewBox="0 0 175.63 144.92"><defs><style>.cls-1{fill:#9c6;}.cls-2{fill:#fff;stroke:#9c6;stroke-miterlimit:10;stroke-width:2px;}</style></defs><circle class="cls-2" cx="87.81" cy="72.46" r="49.25"/><g><path class="cls-1" d="M119.88,80.87c-.36,.5-.87,.65-1.46,.61-.25-.02-.5,0-.75,0-1.03,.05-1.75,.76-1.79,1.78-.03,.93,0,1.87-.01,2.8,0,.95-.34,1.28-1.28,1.28-2.3,0-4.61,0-6.91,0-.73,0-1.15-.35-1.15-.94,0-.57,.39-.93,1.07-.94,1.87,0,3.74,0,5.6,0,.23,0,.45,0,.77,0,0-.58,0-1.11,0-1.64,0-2.58,1.18-3.92,3.71-4.24,.08-.01,.16-.04,.27-.06v-3.71c-1.32-.01-2.44-.46-3.24-1.54-.51-.69-.75-1.47-.72-2.33,.07-2.05,1.34-3.24,3.97-3.69v-3.66c-2.91-.23-4.12-1.93-4-4.75h-.87c-10.9,0-21.79,0-32.69,0-1.01,0-1.47-.29-1.48-.93,0-.64,.48-1.05,1.46-.93,1.57,.19,2.7-.4,3.87-1.43,4.71-4.14,9.49-8.18,14.25-12.26,.88-.76,1.27-.72,2.01,.16,.28,.33,.56,.67,.85,.99,.8,.89,1.82,.97,2.76,.21,.28-.22,.53-.47,.81-.68,.49-.37,.99-.35,1.39,.11,1.22,1.39,2.42,2.79,3.61,4.21,.41,.49,.35,.99-.11,1.44-.3,.29-.64,.53-.93,.83-.71,.71-.76,1.74-.15,2.48,.63,.77,1.68,.91,2.51,.32,.34-.24,.64-.53,.96-.79,.56-.43,1.02-.42,1.48,.1,1.2,1.37,2.39,2.76,3.57,4.16,.42,.51,.37,.96-.1,1.44-.23,.24-.49,.45-.73,.68-.76,.7-.76,1.71,.14,2.27,.5,.31,1.2,.4,1.82,.44,.61,.04,1.16,.06,1.49,.67v6.23c-.28,.51-.71,.7-1.29,.67-.41-.02-.83-.01-1.24,.06-.93,.16-1.53,.97-1.47,1.93,.05,.9,.76,1.62,1.68,1.7,.31,.02,.62,.03,.93,0,.58-.04,1.05,.12,1.39,.62v6.35Zm-20.52-34.82c-4.61,3.95-9.19,7.87-13.85,11.87h29.37c-.72-.84-1.37-1.6-2.02-2.35-2.27,1.38-3.98,1.32-5.39-.15-.6-.62-.94-1.37-1.01-2.22-.12-1.38,.47-2.48,1.48-3.38-.84-.98-1.63-1.9-2.42-2.82-2.42,1.64-3.74,1.43-6.16-.95Z"/><path class="cls-1" d="M62.01,59.84c0,.57,0,1.08,0,1.59,0,2.63-1.14,3.94-3.73,4.29-.08,.01-.16,.04-.29,.08,0,1.02,0,2.03,0,3.04,0,.2,.02,.41,.03,.6,2.82,.62,4.02,1.8,3.98,3.88-.04,2.05-1.27,3.23-3.97,3.75v3.64c2.99,.51,3.55,1.17,4.05,4.77h.76c11.87,0,23.74,0,35.62,0,.23,0,.46,0,.68,0,.56,.04,.92,.38,.94,.88,.03,.53-.33,.92-.91,.99-.16,.02-.33,0-.5,0-1.56,0-3.11-.02-4.67,.02-.34,0-.74,.14-.99,.36-5.12,4.36-10.22,8.74-15.33,13.11-.17,.15-.34,.31-.52,.44-.53,.4-.98,.37-1.43-.11-.37-.39-.7-.82-1.06-1.22-.86-.98-1.88-1.06-2.89-.23-.24,.2-.46,.42-.71,.6-.52,.39-1.01,.38-1.43-.11-1.2-1.37-2.39-2.76-3.57-4.16-.44-.52-.38-1.02,.12-1.48,.3-.28,.64-.53,.93-.83,.7-.71,.73-1.75,.11-2.48-.63-.74-1.65-.89-2.46-.32-.34,.24-.64,.53-.96,.79-.59,.46-1.04,.45-1.52-.1-1.19-1.36-2.36-2.73-3.52-4.11-.46-.55-.39-1.04,.15-1.52,.16-.14,.31-.28,.49-.38,.6-.35,.9-.83,.68-1.54-.21-.71-.66-1.21-1.4-1.35-.46-.09-.95-.06-1.42-.08-.8-.03-1.13-.35-1.14-1.15,0-1.74,0-3.49,0-5.23,0-.8,.33-1.12,1.13-1.15,.43-.02,.88,0,1.3-.05,.98-.14,1.61-.94,1.56-1.93-.05-.93-.78-1.66-1.73-1.71-.41-.02-.83,0-1.24-.02-.65-.04-1.01-.38-1.01-1.03-.02-1.83-.02-3.65,0-5.48,0-.65,.35-.99,1-1.04,.41-.03,.83,0,1.24-.02,.99-.05,1.71-.76,1.74-1.76,.03-.93,0-1.87,.01-2.8,0-.98,.33-1.3,1.32-1.3,3.67,0,7.35,0,11.02,0,.21,0,.42,0,.61,.07,.44,.15,.67,.48,.63,.95-.04,.48-.32,.75-.78,.83-.2,.03-.41,.02-.62,.02-3.18,0-6.35,0-9.53,0-.22,0-.45,0-.76,0Zm14.62,39.41c4.61-3.95,9.18-7.87,13.85-11.86h-29.36c.72,.84,1.37,1.6,2.02,2.35,2.23-1.4,4.12-1.31,5.48,.24,1.39,1.58,1.22,3.41-.54,5.53,.8,.93,1.6,1.87,2.39,2.79,2.39-1.63,3.71-1.43,6.16,.95Z"/><path class="cls-1" d="M108.42,80.98v-16.7c-.3,0-.56,0-.82,0-8.16,0-16.31,0-24.47,0-.29,0-.58,0-.86-.08-.47-.12-.68-.46-.65-.93,.03-.47,.29-.77,.76-.84,.22-.03,.45-.04,.68-.04,8.61,0,17.22,0,25.84,0,1.22,0,1.45,.23,1.45,1.46,0,5.87,0,11.75,0,17.62,0,1.21-.24,1.44-1.47,1.44-13.93,0-27.85,0-41.78,0-1.22,0-1.45-.24-1.45-1.46,0-5.87,0-11.75,0-17.62,0-1.19,.25-1.44,1.41-1.44,2.59,0,5.19,0,7.78,0,.21,0,.42,0,.62,.04,.48,.07,.73,.39,.76,.85,.03,.46-.2,.81-.66,.93-.24,.06-.49,.08-.74,.08-2.18,0-4.36,0-6.54,0h-.7v16.7h40.83Z"/><path class="cls-1" d="M89.17,73.82c-.56,.44-.75,.91-.7,1.53,.05,.49,.02,1,0,1.49-.01,.56-.4,.67-.86,.66-.45-.01-.75-.17-.75-.7,0-2.53,0-5.06,0-7.59,0-.53,.31-.68,.76-.68,.46,0,.85,.1,.85,.66,0,.79,0,1.58,0,2.37,0,.2,.02,.39,.03,.75,.88-1.2,1.67-2.28,2.47-3.36,.37-.49,.72-.55,1.15-.2,.37,.31,.48,.65,.13,1.07-.61,.73-1.18,1.5-1.8,2.23-.23,.28-.22,.46-.03,.75,.77,1.13,1.51,2.28,2.26,3.43,.35,.54,.3,.86-.15,1.16-.47,.31-.86,.23-1.21-.29-.73-1.08-1.44-2.17-2.18-3.28Z"/><path class="cls-1" d="M80.02,73.02c0-.52,0-1.04,0-1.56,.03-2.22,1.49-3.35,3.68-2.85,1.34,.3,2.09,1.14,2.07,2.27,0,.44-.17,.72-.63,.76-.47,.03-.86-.03-.98-.61-.18-.85-.61-1.18-1.36-1.1-.77,.08-1.14,.47-1.16,1.34-.03,1.18-.03,2.36,0,3.55,.02,.91,.4,1.3,1.2,1.35,.81,.05,1.15-.23,1.31-1.13,.1-.57,.46-.67,.95-.65,.51,.02,.68,.31,.68,.78,0,1-.49,1.7-1.38,2.11-.86,.4-1.77,.44-2.67,.16-1.01-.31-1.61-1.12-1.69-2.23,0-.08-.01-.17-.01-.25,0-.64,0-1.29,0-1.93,0,0,0,0,0,0Z"/><path class="cls-1" d="M95.3,69.91v2.48c.55,0,1.07,.01,1.58,0,.44-.02,.73,.13,.74,.62,0,.48-.27,.65-.72,.64-.52-.01-1.03,0-1.6,0v2.48c1.05,0,2.08,.01,3.11,0,.49,0,.81,.13,.82,.68,.01,.58-.3,.73-.83,.73-1.28-.02-2.57,0-3.85,0-.75,0-.88-.14-.88-.87,0-2.42,0-4.85,0-7.27,0-.69,.15-.84,.85-.84,1.33,0,2.65,0,3.98,0,.5,0,.74,.2,.74,.69,0,.48-.22,.72-.72,.71-1.05-.02-2.11,0-3.22,0Z"/><path class="cls-1" d="M103.54,69.95c0,.72,0,1.36,0,2,0,1.57,0,3.15,0,4.72,0,.62-.22,.84-.81,.84-.59,0-.79-.21-.79-.83,0-1.99,0-3.98,0-5.97,0-.22,0-.45,0-.76-.56,0-1.08-.02-1.59,0-.51,.02-.73-.25-.73-.71,0-.45,.19-.73,.72-.73,1.6,.02,3.19,.01,4.79,0,.48,0,.68,.23,.7,.67,.01,.46-.16,.76-.68,.76-.51,0-1.02,0-1.6,0Z"/><path class="cls-1" d="M73.82,69.95c0,2.32,0,4.53,0,6.75,0,.62-.26,.84-.88,.81-.56-.03-.73-.35-.73-.87,.01-1.99,0-3.98,0-5.97,0-.22,0-.44,0-.73-.57,0-1.07-.01-1.56,0-.49,.01-.73-.22-.73-.7,0-.47,.19-.73,.71-.73,1.59,.01,3.19,.01,4.79,0,.52,0,.71,.28,.71,.73,0,.42-.19,.71-.68,.7-.51-.01-1.03,0-1.63,0Z"/><path class="cls-1" d="M77.02,72.96c0-1.2,0-2.4,0-3.61,0-.63,.2-.82,.8-.82,.52,0,.81,.22,.8,.78,0,2.47,0,4.93,0,7.4,0,.59-.26,.81-.85,.8-.54-.01-.77-.27-.75-.82,.02-1.24,0-2.49,0-3.73Z"/></g></svg>