<?xml version="1.0" encoding="UTF-8"?><svg id="Layer_1" xmlns="http://www.w3.org/2000/svg" viewBox="0 0 2479.67 720"><defs><style>.cls-1{fill:#a8c465;}.cls-2{font-size:28px;}.cls-2,.cls-3,.cls-4{fill:#a8c466;}.cls-2,.cls-4{font-family:OpenSans-Bold, 'Open Sans';}.cls-3{font-family:OpenSans, 'Open Sans';font-size:303.62px;}.cls-4{font-size:238.56px;}</style></defs><g><path class="cls-1" d="M507.13,467.75c2.65-28.17,5.31-56.34,8.06-85.54,1.02,1.8,2.04,2.91,2.31,4.18,4.72,21.86,9.62,43.69,13.77,65.67,.82,4.34-.02,10.1-2.35,13.77-17.26,27.18-39.8,49.77-64.47,70.08-18.25,15.02-37.2,29.28-56.68,42.66-19.07,13.1-36.36,26.74-36.9,53.86-8.73-4.48-16.08-8.35-23.5-12.05-36.15-18.03-72.07-36.49-103.57-62.19-3.78-3.08-6.95-8.08-8.27-12.79-4.48-15.96-8-32.19-11.89-48.28,12.42-3.1,17.39-1.45,22.39,9.4,6.45,14,11.72,28.55,17.51,42.85,1.16,2.87,2.38,5.71,3.8,9.12,14.16-3.42,27.86-6.72,42.8-10.33-9.78-19.61-18.72-38.68-28.72-57.17-5.18-9.57-10.77-11.96-26.34-15.97,4.23-4.67,8.77-9.21,12.77-14.19,19.89-24.82,8.15-62.7-21.83-68.39-9.24-1.75-19.43-.05-28.95,1.53-11.78,1.96-23.3,5.44-36.23,8.59,.44-2.91,.47-5.24,1.15-7.36,12.66-39.64,40.5-61.9,80.57-69.93,28.47-5.71,55.8-.05,82.74,8.83,12.83,4.23,25.58,8.72,39.33,13.42,.79-15.26-3.46-28.28-11.27-41.29,39.19-21.95,78.63-37.41,123.35-18.83,14.6,6.07,26.04,16.07,35.31,30.52-9.73,2.46-18.37,5.34-27.24,6.66-7.35,1.09-8.96,5.01-9.58,11.41-1.84,19.04-4.17,38.03-6.64,59.94-9.21-13.8-16.97-25.41-24.7-37.04q-13.88-20.88-37.99-15.11c-5.79,1.39-11.57,2.8-18.72,4.53,13.42,55.7,26.72,110.9,40.22,166.91,13.12-3.16,25.23-6.08,38.6-9.31-9.35-36.97-18.5-73.18-28.27-111.85,16.48,26.02,31.72,50.07,46.96,74.13,.83-.14,1.66-.28,2.49-.41Zm-183.65,77.21c13.43-3.24,26.11-6.3,39.41-9.51-5.32-22.26-10.41-43.58-15.67-65.59,7.31-2.12,14.28-3.82,21.03-6.16,30.43-10.54,43-35.93,33.75-67.81-8.21-28.3-29.51-39.22-61.62-31.61-1.23,.29-2.48,.45-3.71,.75-17.62,4.29-35.24,8.6-53.44,13.05,13.54,56.13,26.8,111.1,40.25,166.88Z"/><path class="cls-1" d="M319.91,167.3c-1.49,9.94-2.01,20.15-4.66,29.77-10.02,36.44-50.64,51.62-82.49,31.29-26.91-17.18-38.9-43.81-46.13-73.31-9.83-40.13,4.8-74.57,26.47-106.75,9.06-13.45,20.27-15.19,34.75-7.4,6.58,3.54,12.63,8.34,18.24,13.33,5.87,5.22,10.71,11.58,16.38,17.06,27.17,26.28,38.58,58.47,37.44,96.01Z"/><path class="cls-1" d="M46.64,170.21c4.07-16.5,15.14-23,31.96-20.37,22.94,3.58,44.04,11.34,59.69,29.5,14.58,16.92,28.87,34.1,42.84,51.53,8.53,10.65,9.88,22.85,5.1,35.7-1.32,3.54-2.76,7.08-3.54,10.76-4.31,20.25-16.1,33.51-35.8,40.23-7.09,2.42-13.72,6.3-20.41,9.79-30.89,16.09-67.83,.49-76-33.62-4.45-18.56-5.49-37.95-7.8-57-.99-8.12-1.3-16.33-1.92-24.49-.34-.08,2.51-28.36,5.88-42.03Z"/><path class="cls-1" d="M387.88,695.62c-46.39-36.24-101.87-55.39-152.54-83.39-50.09-27.68-84.74-68.06-102.32-122.43-17.77-54.95-12-106.95,25.37-152.47,38.97-47.46,109.46-73.75,176.42-32.24,10.56,6.54,20.49,14.09,31.48,21.7-22.71-5.5-43.79-11.4-65.2-15.63-67.94-13.42-134.36,39.45-137.71,108.7-2.84,58.64,16.01,108.02,62.15,145.31,28.24,22.82,58.99,42,91.62,58.16,12.67,6.27,25.06,13.33,36.77,21.23,17.84,12.03,29.2,29.08,33.96,51.05Z"/><path class="cls-1" d="M345.96,158.65c1.92-22.45,2.86-41.06,5.26-59.47,3.29-25.27,17.26-45.76,32.38-65.27,6.7-8.65,16.67-11.72,27.23-7.95,6.04,2.16,13.15,5.07,16.67,9.9,25.3,34.77,47.75,71.04,42.74,116.78-1.39,12.72-4.63,25.45-8.7,37.61-14.37,42.84-75.36,47.46-100.36,26.43-7.9-6.65-12.68-14.95-13.51-25.12-1-12.22-1.29-24.5-1.71-32.92Z"/><path class="cls-1" d="M638.79,235.64c-.2,.91-.7,1.75-1.07,2.62-7.52,17.59-47.52,30.9-63.2,20.24-17.42-11.84-34.23-24.6-51.01-37.36-12.78-9.72-17.49-23.1-13.75-38.59,7.45-30.86,15.37-61.62,23.51-92.31,1.42-5.34,4.39-10.47,7.53-15.1,5.52-8.15,13.82-11.79,23.09-8.29,28.83,10.89,55.89,24.11,64.64,57.72,5.54,21.26,11.37,42.44,16.92,63.7,.7,2.7,.48,5.64,.68,8.46,.36,.09-4.51,26.04-7.35,38.92Z"/><path class="cls-1" d="M363.78,291.95c21.76-37.22,69.97-60.53,111.55-52.57,17.45,3.34,34.83,8.58,51.31,15.26,46.04,18.69,70.05,54.31,76.43,103.01,10.5,80.17-19.93,141.58-85.09,187.15-13.93,9.75-28.29,18.95-42.89,27.67-32.56,19.46-68.25,34.4-92.62,65.72,1.52-20.25,10.99-36.05,26.39-48.06,22.88-17.85,46.38-34.89,69.39-52.57,28.36-21.79,51.93-48.08,69.67-79.07,28.97-50.6,24.82-101.32-4.38-149.85-24.26-40.3-80.35-56.93-126.2-39.47-17.89,6.81-35.27,14.96-53.54,22.78Z"/><path class="cls-1" d="M215.99,465.44c-2.78-11.53-5.47-22.7-8.31-34.47,9.37-2.34,19.08-7.94,25.81,1.03,3.89,5.18,5.28,14.23,4.03,20.82-1.95,10.23-11.73,11.63-21.53,12.62Z"/><path class="cls-1" d="M338.99,435.64c-2.78-11.42-5.48-22.56-8.41-34.59,9.79-2.07,19.12-7.91,27.95-.04,5.99,5.34,7.72,13.15,4.81,20.8-4.07,10.67-13.65,12.69-24.35,13.84Z"/></g><text class="cls-4" transform="translate(696.96 317.05)"><tspan x="0" y="0">RESCUED PETS </tspan></text><text class="cls-3" transform="translate(696.96 588.14)"><tspan x="0" y="0">MOVEMENT</tspan></text><text class="cls-2" transform="translate(1502.29 693.27)"><tspan x="0" y="0"> </tspan></text></svg>