<?xml version="1.0" encoding="UTF-8"?><svg id="Layer_1" xmlns="http://www.w3.org/2000/svg" viewBox="0 0 184.75 49.51"><defs><style>.cls-1,.cls-2,.cls-3,.cls-4,.cls-5{fill:#fff;}.cls-2{font-size:6.48px;}.cls-2,.cls-5{font-family:OpenSans, 'Open Sans';}.cls-3{font-size:17.82px;}.cls-3,.cls-4{font-family:OpenSans-Bold, 'Open Sans';}.cls-4,.cls-5{font-size:22.68px;}</style></defs><text class="cls-3" transform="translate(51.88 19.86)"><tspan x="0" y="0">RESCUED PETS </tspan></text><text class="cls-5" transform="translate(51.88 40.11)"><tspan x="0" y="0">MOVEMENT</tspan></text><text class="cls-4" transform="translate(178.86 40.11)"><tspan x="0" y="0"> </tspan></text><text class="cls-2" transform="translate(53.48 47.13)"><tspan x="0" y="0">For Love, Transport, and Second Chances</tspan></text><g><path class="cls-1" d="M34.48,32.71c.2-2.08,.39-4.16,.59-6.31,.08,.13,.15,.21,.17,.31,.35,1.61,.71,3.22,1.02,4.84,.06,.32,0,.74-.17,1.02-1.27,2-2.94,3.67-4.76,5.17-1.35,1.11-2.74,2.16-4.18,3.15-1.41,.97-2.68,1.97-2.72,3.97-.64-.33-1.19-.62-1.73-.89-2.67-1.33-5.32-2.69-7.64-4.59-.28-.23-.51-.6-.61-.94-.33-1.18-.59-2.37-.88-3.56,.92-.23,1.28-.11,1.65,.69,.48,1.03,.86,2.11,1.29,3.16,.09,.21,.18,.42,.28,.67,1.04-.25,2.06-.5,3.16-.76-.72-1.45-1.38-2.85-2.12-4.22-.38-.71-.79-.88-1.94-1.18,.31-.34,.65-.68,.94-1.05,1.47-1.83,.6-4.63-1.61-5.04-.68-.13-1.43,0-2.14,.11-.87,.14-1.72,.4-2.67,.63,.03-.21,.03-.39,.08-.54,.93-2.92,2.99-4.57,5.94-5.16,2.1-.42,4.12,0,6.1,.65,.95,.31,1.89,.64,2.9,.99,.06-1.13-.25-2.09-.83-3.05,2.89-1.62,5.8-2.76,9.1-1.39,1.08,.45,1.92,1.19,2.6,2.25-.72,.18-1.36,.39-2.01,.49-.54,.08-.66,.37-.71,.84-.14,1.4-.31,2.8-.49,4.42-.68-1.02-1.25-1.87-1.82-2.73q-1.02-1.54-2.8-1.11c-.43,.1-.85,.21-1.38,.33,.99,4.11,1.97,8.18,2.97,12.31,.97-.23,1.86-.45,2.85-.69-.69-2.73-1.36-5.4-2.09-8.25,1.22,1.92,2.34,3.69,3.46,5.47,.06-.01,.12-.02,.18-.03Zm-13.55,5.7c.99-.24,1.93-.46,2.91-.7-.39-1.64-.77-3.21-1.16-4.84,.54-.16,1.05-.28,1.55-.45,2.24-.78,3.17-2.65,2.49-5-.61-2.09-2.18-2.89-4.55-2.33-.09,.02-.18,.03-.27,.06-1.3,.32-2.6,.63-3.94,.96,1,4.14,1.98,8.2,2.97,12.31Z"/><path class="cls-1" d="M20.67,10.54c-.11,.73-.15,1.49-.34,2.2-.74,2.69-3.74,3.81-6.08,2.31-1.99-1.27-2.87-3.23-3.4-5.41-.73-2.96,.35-5.5,1.95-7.87,.67-.99,1.49-1.12,2.56-.55,.49,.26,.93,.62,1.35,.98,.43,.39,.79,.85,1.21,1.26,2,1.94,2.85,4.31,2.76,7.08Z"/><path class="cls-1" d="M0,13.84c.16-1.03,.26-2.07,.51-3.08,.3-1.22,1.12-1.7,2.36-1.5,1.69,.26,3.25,.84,4.4,2.18,1.08,1.25,2.13,2.52,3.16,3.8,.63,.79,.73,1.69,.38,2.63-.1,.26-.2,.52-.26,.79-.32,1.49-1.19,2.47-2.64,2.97-.52,.18-1.01,.47-1.51,.72-2.28,1.19-5,.04-5.61-2.48-.33-1.37-.4-2.8-.58-4.2-.07-.6-.1-1.2-.14-1.81-.02,0-.05-.01-.07-.02Z"/><path class="cls-1" d="M25.68,49.51c-3.42-2.67-7.51-4.09-11.25-6.15-3.69-2.04-6.25-5.02-7.55-9.03-1.31-4.05-.89-7.89,1.87-11.25,2.87-3.5,8.07-5.44,13.01-2.38,.78,.48,1.51,1.04,2.32,1.6-1.68-.41-3.23-.84-4.81-1.15-5.01-.99-9.91,2.91-10.16,8.02-.21,4.33,1.18,7.97,4.58,10.72,2.08,1.68,4.35,3.1,6.76,4.29,.93,.46,1.85,.98,2.71,1.57,1.32,.89,2.15,2.14,2.5,3.77Z"/><path class="cls-1" d="M22.59,9.9c.14-1.66,.21-3.03,.39-4.39,.24-1.86,1.27-3.38,2.39-4.81,.49-.64,1.23-.86,2.01-.59,.45,.16,.97,.37,1.23,.73,1.87,2.56,3.52,5.24,3.15,8.61-.1,.94-.34,1.88-.64,2.77-1.06,3.16-5.56,3.5-7.4,1.95-.58-.49-.94-1.1-1-1.85-.07-.9-.1-1.81-.13-2.43Z"/><path class="cls-1" d="M44.81,12.73c-.21,.95-.41,1.9-.62,2.85-.01,.07-.05,.13-.08,.19-.55,1.3-3.51,2.28-4.66,1.49-1.28-.87-2.53-1.81-3.76-2.76-.94-.72-1.29-1.7-1.01-2.85,.55-2.28,1.13-4.55,1.73-6.81,.1-.39,.32-.77,.56-1.11,.41-.6,1.02-.87,1.7-.61,2.13,.8,4.12,1.78,4.77,4.26,.41,1.57,.84,3.13,1.25,4.7,.05,.2,.04,.42,.05,.62,.03,0,.05,.01,.08,.02Z"/><path class="cls-1" d="M23.9,19.74c1.61-2.75,5.16-4.47,8.23-3.88,1.29,.25,2.57,.63,3.78,1.13,3.4,1.38,5.17,4.01,5.64,7.6,.77,5.91-1.47,10.44-6.28,13.81-1.03,.72-2.09,1.4-3.16,2.04-2.4,1.44-5.03,2.54-6.83,4.85,.11-1.49,.81-2.66,1.95-3.55,1.69-1.32,3.42-2.57,5.12-3.88,2.09-1.61,3.83-3.55,5.14-5.83,2.14-3.73,1.83-7.47-.32-11.05-1.79-2.97-5.93-4.2-9.31-2.91-1.32,.5-2.6,1.1-3.95,1.68Z"/><path class="cls-1" d="M13,32.53c-.21-.85-.4-1.67-.61-2.54,.69-.17,1.41-.59,1.9,.08,.29,.38,.39,1.05,.3,1.54-.14,.75-.87,.86-1.59,.93Z"/><path class="cls-1" d="M22.07,30.34c-.2-.84-.4-1.66-.62-2.55,.72-.15,1.41-.58,2.06,0,.44,.39,.57,.97,.35,1.53-.3,.79-1.01,.94-1.8,1.02Z"/></g></svg>